# This file uses centimeters as units for non-parametric coordinates.

mtllib ANGELSmall.mtl
g default
v 0.000000 0.400000 0.000000
v 0.400000 0.000000 0.000000
v 0.000000 0.000000 -0.400000
v -0.400000 0.000000 0.000000
v 0.000000 -0.000000 0.400000
v 0.000000 -0.400000 -0.000000
vt 0.571429 0.125000
vt 0.142857 0.375000
vt 0.428571 0.375000
vt 0.714286 0.375000
vt 1.000000 0.375000
vt 0.000000 0.625000
vt 0.285714 0.625000
vt 0.571429 0.625000
vt 0.857143 0.625000
vt 0.428571 0.875000
vn 1.000000 0.000000 0.000000
vn 0.000000 0.000000 -1.000000
vn 0.000000 1.000000 0.000000
vn -1.000000 0.000000 0.000000
vn 0.000000 0.000000 1.000000
vn 0.000000 -1.000000 0.000000
s 1
g pSolid1
usemtl initialShadingGroup
f 2/7/1 3/2/2 1/3/3
f 3/1/2 4/4/4 1/3/3
f 4/4/4 5/8/5 1/3/3
f 1/3/3 5/8/5 2/7/1
f 6/6/6 3/2/2 2/7/1
f 6/9/6 4/4/4 3/5/2
f 6/9/6 5/8/5 4/4/4
f 6/10/6 2/7/1 5/8/5
